<?xml version="1.0" encoding="UTF-8" standalone="no"?>
<!-- Created with Inkscape (http://www.inkscape.org/) -->

<svg
   width="128"
   height="128"
   viewBox="0 0 33.866666 33.866666"
   version="1.1"
   id="svg1"
   xml:space="preserve"
   sodipodi:docname="favicon.svg"
   inkscape:version="1.4.3 (0d15f75042, 2025-12-25)"
   xmlns:inkscape="http://www.inkscape.org/namespaces/inkscape"
   xmlns:sodipodi="http://sodipodi.sourceforge.net/DTD/sodipodi-0.dtd"
   xmlns="http://www.w3.org/2000/svg"
   xmlns:svg="http://www.w3.org/2000/svg"><sodipodi:namedview
     id="namedview1"
     pagecolor="#ffffff"
     bordercolor="#000000"
     borderopacity="0.25"
     inkscape:showpageshadow="2"
     inkscape:pageopacity="0.0"
     inkscape:pagecheckerboard="0"
     inkscape:deskcolor="#d1d1d1"
     inkscape:zoom="17.920737"
     inkscape:cx="109.3984"
     inkscape:cy="62.971739"
     inkscape:window-width="1920"
     inkscape:window-height="1020"
     inkscape:window-x="0"
     inkscape:window-y="0"
     inkscape:window-maximized="1"
     inkscape:current-layer="svg1" /><defs
     id="defs1"><rect
       x="128.9286"
       y="238.23764"
       width="166.76636"
       height="16.816774"
       id="rect1" /></defs><g
     id="layer1"
     transform="matrix(1.1921081,0,0,1.1921081,-3.2895749,-3.2530324)"><g
       id="g17"
       transform="matrix(1.0796337,0,0,1.0796337,-93.379805,-97.24842)"
       style="stroke:#000000;stroke-width:0.260699;stroke-dasharray:none"><path
         style="baseline-shift:baseline;display:inline;overflow:visible;opacity:1;fill:#ffffff;stroke:#000000;stroke-width:0.347598;stroke-linecap:round;stroke-linejoin:round;stroke-dasharray:none;enable-background:accumulate;stop-color:#000000;stop-opacity:1"
         d="m 95.464524,101.86091 -3.442011,3.44202 a 0.64577886,0.64577886 0 0 0 0,0.91249 l 3.442011,3.44202 a 0.64571429,0.64571429 0 0 0 0.912491,0 0.64571429,0.64571429 0 0 0 0,-0.9125 l -2.985765,-2.98576 2.985765,-2.98577 a 0.64571429,0.64571429 0 0 0 0,-0.9125 0.64571429,0.64571429 0 0 0 -0.912491,0 z"
         id="path1" /><path
         style="baseline-shift:baseline;display:inline;overflow:visible;opacity:1;fill:#ffffff;stroke:#000000;stroke-width:0.347598;stroke-linecap:round;stroke-linejoin:round;stroke-dasharray:none;enable-background:accumulate;stop-color:#000000;stop-opacity:1"
         d="m 99.156631,101.86164 a 0.64571583,0.64571583 0 0 0 0,0.91295 l 2.562699,2.56267 a 0.6457804,0.6457804 0 0 0 0.91295,0 l 2.56269,-2.56267 a 0.64571583,0.64571583 0 0 0 0,-0.91295 0.64571583,0.64571583 0 0 0 -0.91296,0 l -2.1062,2.10619 -2.10621,-2.10619 a 0.64571583,0.64571583 0 0 0 -0.912969,0 z"
         id="path1-2" /><path
         style="baseline-shift:baseline;display:inline;overflow:visible;opacity:1;fill:#00b8ff;fill-opacity:1;stroke:#13132b;stroke-width:0.347598;stroke-linecap:round;stroke-dasharray:none;stroke-opacity:1;enable-background:accumulate;stop-color:#000000;stop-opacity:1"
         d="m 90.623133,101.67103 a 0.64476558,0.64476558 0 0 0 -0.643192,0.64824 l 0.0227,6.88595 a 0.64476558,0.64476558 0 0 0 0.648237,0.64068 0.64476558,0.64476558 0 0 0 0.643193,-0.64572 l -0.02522,-6.88595 a 0.64476558,0.64476558 0 0 0 -0.645716,-0.6432 z"
         id="path13" /><path
         style="baseline-shift:baseline;display:inline;overflow:visible;opacity:1;fill:#00b8ff;fill-opacity:1;stroke:#13132b;stroke-width:0.347598;stroke-linecap:round;stroke-dasharray:none;stroke-opacity:1;enable-background:accumulate;stop-color:#000000;stop-opacity:1"
         d="m 97.759514,101.67355 a 0.64476558,0.64476558 0 0 0 -0.643193,0.64572 l 0.0227,6.88595 a 0.64476558,0.64476558 0 0 0 0.645715,0.64319 0.64476558,0.64476558 0 0 0 0.643193,-0.64823 l -0.0227,-6.88595 a 0.64476558,0.64476558 0 0 0 -0.645715,-0.64068 z"
         id="path14" /><path
         style="baseline-shift:baseline;display:inline;overflow:visible;opacity:1;fill:#00b8ff;fill-opacity:1;stroke:#13132b;stroke-width:0.347598;stroke-linecap:round;stroke-dasharray:none;stroke-opacity:1;enable-background:accumulate;stop-color:#000000;stop-opacity:1"
         d="m 106.57769,101.67355 a 0.64476558,0.64476558 0 0 0 -0.64319,0.64572 l 0.0227,6.88595 a 0.64476558,0.64476558 0 0 0 0.64824,0.64319 0.64476558,0.64476558 0 0 0 0.64067,-0.64823 l -0.0227,-6.88595 a 0.64476558,0.64476558 0 0 0 -0.64572,-0.64068 z"
         id="path15" /><path
         style="baseline-shift:baseline;display:inline;overflow:visible;opacity:1;fill:#ffffff;stroke:#000000;stroke-width:0.347598;stroke-linecap:round;stroke-linejoin:round;stroke-dasharray:none;enable-background:accumulate;stop-color:#000000;stop-opacity:1"
         d="m 108.88802,101.86188 a 0.64571465,0.64571465 0 0 0 -0.91333,-6.3e-4 0.64571465,0.64571465 0 0 0 6.3e-4,0.91334 l 2.9853,2.9853 -2.98593,2.98591 a 0.64571465,0.64571465 0 0 0 0,0.91271 0.64571465,0.64571465 0 0 0 0.91333,6.3e-4 l 3.44227,-3.44228 a 0.64577922,0.64577922 0 0 0 -6.3e-4,-0.91333 z"
         id="path1-1" /><path
         style="baseline-shift:baseline;display:inline;overflow:visible;opacity:1;fill:#00b8ff;fill-opacity:1;stroke:#13132b;stroke-width:0.347598;stroke-linecap:round;stroke-dasharray:none;stroke-opacity:1;enable-background:accumulate;stop-color:#000000;stop-opacity:1"
         d="m 111.17206,101.67355 c -0.35662,0 -0.64572,0.2891 -0.64572,0.64572 0,0.35662 0.2891,0.64571 0.64572,0.64571 h 2.90759 c 0.35661,0 0.64571,-0.2891 0.64571,-0.64571 0,-0.35662 -0.28909,-0.64572 -0.64571,-0.64572 z"
         id="path3" /></g></g></svg>
